<?xml version="1.0" ?><!DOCTYPE svg  PUBLIC '-//W3C//DTD SVG 1.1//EN'  'http://www.w3.org/Graphics/SVG/1.1/DTD/svg11.dtd'><svg enable-background="new 0 0 512 512" height="512px" id="Layer_1" version="1.1" viewBox="0 0 512 512" width="512px" xml:space="preserve" xmlns="http://www.w3.org/2000/svg" xmlns:xlink="http://www.w3.org/1999/xlink"><g><g><path d="M487.724,103.97l-155.28-38.6c-17.155-4.263-34.531,6.188-38.78,23.331l-77.207,310.544    c-4.263,17.162,6.188,34.538,23.351,38.787l155.262,38.588c17.188,4.287,34.5-6.15,38.781-23.338l77.188-310.538    C515.318,125.595,504.88,108.232,487.724,103.97z M192.681,439.971c-8.812-14.626-11.413-31.844-7.27-48.438L262.6,80.982    c0.52-2.062,1.332-3.981,2.02-5.95l-38.863-9.662c-17.156-4.263-34.531,6.188-38.781,23.331L109.77,399.245    c-4.263,17.162,6.188,34.538,23.35,38.787l74.088,18.399C201.567,451.845,196.556,446.407,192.681,439.971z M83.868,439.971    c-8.812-14.626-11.413-31.844-7.27-48.438l77.188-310.55c0.52-2.062,1.332-3.981,2.02-5.95l-38.863-9.662    c-17.156-4.263-34.531,6.188-38.781,23.331L0.955,399.245c-4.263,17.162,6.188,34.538,23.351,38.787l74.087,18.399    C92.755,451.845,87.743,446.407,83.868,439.971z" fill="#1D1D1B"/></g></g></svg>