<?xml version="1.0" ?><!DOCTYPE svg  PUBLIC '-//W3C//DTD SVG 1.1//EN'  'http://www.w3.org/Graphics/SVG/1.1/DTD/svg11.dtd'><svg enable-background="new 0 0 64 64" height="64px" id="Layer_1" version="1.1" viewBox="0 0 64 64" width="64px" xml:space="preserve" xmlns="http://www.w3.org/2000/svg" xmlns:xlink="http://www.w3.org/1999/xlink"><g><ellipse cx="32" cy="56.6" fill="#5E0404" rx="12.2" ry="6.2"/><g><path d="M13.5,10.5c0,0,0.3-5.9,6.7-9.3c0,0,4.5,0.4,7.1,3.7c0,0,1.9-2,3.3-1.8L32,4.7v10.8l-16.6,2.2L13.5,10.5z" fill="#5E0404"/><path d="M50.5,10.5c0,0-0.3-5.9-6.7-9.3c0,0-4.5,0.4-7.1,3.7c0,0-1.9-2-3.3-1.8L32,4.7v10.8l16.6,2.2L50.5,10.5z" fill="#5E0404"/></g><g><g><path d="M6.6,27.9c0,0-2.6,0.7-3.9,2.4c0,0,1.1,1.6,2.5,1.6c0,0-0.8,0.1-0.9,1.2c0,0,0.9,1.5,1.9,1.6     S9.6,40,9.6,40l1.4-9.9L6.6,27.9z" fill="#D31E1E"/><path d="M7.8,13.8c0,0-1.7-3.7-0.2-7.6c0,0,10.2,0.6,10.4,6.8c0,0,1.5-2.9,2.1-5.9c0,0,4.3,1.2,5.9,4.6     c0,0,0.9-2.8,2.5-3.3c1.6-0.6,3.6,2.3,3.6,3.7s-5.1,10.5-5.1,10.5l-8.3,1.1L7.8,13.8z" fill="#D31E1E"/></g><g><path d="M57.4,27.9c0,0,2.6,0.7,3.9,2.4c0,0-1.1,1.6-2.5,1.6c0,0,0.8,0.1,0.9,1.2c0,0-0.9,1.5-1.9,1.6     S54.4,40,54.4,40L53,30.1L57.4,27.9z" fill="#FF0606"/><path d="M56.2,13.8c0,0,1.7-3.7,0.2-7.6c0,0-10.2,0.6-10.4,6.8c0,0-1.5-2.9-2.1-5.9c0,0-4.3,1.2-5.9,4.6     c0,0-0.9-2.8-2.5-3.3c-1.6-0.6-3.6,2.3-3.6,3.7s5.1,10.5,5.1,10.5l8.3,1.1L56.2,13.8z" fill="#FF0606"/></g></g><g><polygon fill="#5E0404" points="13.7,48.7 22,52.6 22,60 19.4,57 14,57 16.2,55 11.2,55 14.2,52 9.2,52 11.2,50.1   "/><g><polygon fill="#5E0404" points="50.3,48.7 42,52.6 42,60 44.6,57 50,57 47.8,55 52.8,55 49.8,52 54.8,52 52.8,50.1    "/></g></g><ellipse cx="32" cy="33.7" fill="#FF0606" rx="25.3" ry="21.2"/><path d="M32,12.5c14,0,25.3,9.5,25.3,21.2C57.3,45.4,46,54.9,32,54.9" fill="#D31E1E"/><ellipse cx="32" cy="49.9" fill="#890000" rx="13.1" ry="9.9"/><ellipse cx="32" cy="46.7" fill="#FF7F15" rx="13.1" ry="9.9"/><path d="M32,36.8c7.2,0,13.1,4.4,13.1,9.9c0,5.5-5.9,9.9-13.1,9.9" fill="#EA6A0A"/><ellipse cx="32" cy="43.9" fill="#FFA412" rx="11.6" ry="6.9"/><path d="M32,37c6.4,0,11.6,3.1,11.6,6.9c0,3.8-5.2,6.9-11.6,6.9" fill="#FF7915"/><ellipse cx="32" cy="43.1" fill="#D31E1E" rx="11.6" ry="4.7"/><path d="M32,38.4c6.4,0,11.6,2.1,11.6,4.7c0,2.6-5.2,4.7-11.6,4.7" fill="#A80404"/><g><g><path d="M25.1,36.8c0,0-3.2-3.8-11.1,4.1C7.4,47.4,1.9,39,4.5,35.2c0,0-0.3-2.9-2.5,3.3     C-0.1,44.7,3.8,51.9,12.7,50c9-2,10-4.8,14.8-4.2c4.8,0.6,4.3-3.5,4.5-4.4c0.2-0.9,0-5.6,0-5.6L25.1,36.8z" fill="#890000"/><path d="M12.7,50c9-2,10-4.8,14.8-4.2c4.8,0.6,4.3-3.5,4.5-4.4c0.2-0.9,0-5.6,0-5.6l-6.9,1.1" fill="#5E0404"/><path d="M1.5,9.3c0,0-2.4,18.2,8.5,22.4L8,34h5v3.4l6-6c0,0,9.4-7.7-2-15.2C8.8,10.9,1.5,9.3,1.5,9.3z" fill="#A80404"/><path d="M1.5,9.3c0,0-2.4,18.2,8.5,22.4L8,34h5v3.4l6-6c0,0,7.6-7.8-3.8-15.3C7.1,10.7,1.5,9.3,1.5,9.3z" fill="#890000"/><path d="M13,34v3.4l6-6c0,0,7.6-7.8-3.8-15.3C7.1,10.7,1.5,9.3,1.5,9.3" fill="#5E0404"/><path d="M26.2,29.1c0,3.7-3.1,6.8-6.9,6.8c-3.8,0-6.9-3-6.9-6.8c0-3.7,3.1-7.7,6.9-7.7     C23.1,21.5,26.2,25.4,26.2,29.1z" fill="#FFA412"/><ellipse cx="19.2" cy="29.1" fill="#A80404" rx="6.9" ry="6.8"/><path d="M14.3,24.3c2.7-2.6,7.1-2.6,9.8,0c2.7,2.6,2.7,6.9,0,9.6" fill="#890000"/><ellipse cx="19.2" cy="29.1" fill="#FFA412" rx="5.4" ry="5.2"/><path d="M19.2,23.9c3,0,5.4,2.3,5.4,5.2c0,2.9-2.4,5.2-5.4,5.2" fill="#FF7F15"/><ellipse cx="19.2" cy="29.1" fill="#5E0404" rx="2.8" ry="2.7"/><path d="M19.2,26.4c1.5,0,2.8,1.2,2.8,2.7c0,1.5-1.2,2.7-2.8,2.7" fill="#350202"/><ellipse cx="17.8" cy="27.7" fill="#FFE799" rx="0.9" ry="0.8"/><ellipse cx="20.3" cy="29.9" fill="#FFE799" rx="0.5" ry="0.5"/><ellipse cx="4.5" cy="14.7" fill="#FF7F15" rx="1.1" ry="1.1"/><ellipse cx="6.3" cy="17.3" fill="#FF7F15" rx="0.5" ry="0.5"/><circle cx="7.6" cy="18.8" fill="#FF7F15" r="0.2"/><path d="M10.4,17.3c0,0,3.3,4.5-0.7,5.1c-4,0.6-4.1,4.1-1.7,5.5c2.4,1.3,3.9-2.1,2.4-2.6c0,0,0.1,2.4-2.2,1.2     c-2.3-1.3-0.9-4.1,3.3-3.8c4.2,0.4,3.8-2.6,2.1-4C11.9,17.2,10.4,17.3,10.4,17.3z" fill="#FF7F15"/><path d="M26.3,36.1c-0.2,0-0.3,0-0.5,0c-3.4,0-6.2,1.9-6.2,4.9h9.2c0.9,0,2.1,0.8,3.1,0.8V30.7     C29,30.7,26.4,33.1,26.3,36.1z" fill="#FFC217"/></g><g><path d="M38.9,36.8c0,0,3.2-3.8,11.1,4.1c6.6,6.5,12.1-1.9,9.4-5.7c0,0,0.3-2.9,2.5,3.3     c2.2,6.2-1.7,13.4-10.7,11.5c-9-2-10-4.8-14.8-4.2c-4.8,0.6-4.3-3.5-4.5-4.4c-0.2-0.9,0-5.6,0-5.6L38.9,36.8z" fill="#890000"/><path d="M51.3,50c-9-2-10-4.8-14.8-4.2c-4.8,0.6-4.3-3.5-4.5-4.4c-0.2-0.9,0-5.6,0-5.6l6.9,1.1" fill="#5E0404"/><path d="M62.5,9.3c0,0,2.4,18.2-8.5,22.4l2,2.3h-5v3.4l-6-6c0,0-9.4-7.7,2-15.2C55.2,10.9,62.5,9.3,62.5,9.3z" fill="#A80404"/><path d="M62.5,9.3c0,0,2.4,18.2-8.5,22.4l2,2.3h-5v3.4l-6-6c0,0-7.6-7.8,3.8-15.3C56.9,10.7,62.5,9.3,62.5,9.3z" fill="#890000"/><path d="M51,34v3.4l-6-6c0,0-7.6-7.8,3.8-15.3c8.2-5.4,13.7-6.8,13.7-6.8" fill="#5E0404"/><path d="M37.8,29.1c0,3.7,3.1,6.8,6.9,6.8c3.8,0,6.9-3,6.9-6.8c0-3.7-3.1-7.7-6.9-7.7     C40.9,21.5,37.8,25.4,37.8,29.1z" fill="#FFA412"/><ellipse cx="44.8" cy="29.1" fill="#A80404" rx="6.9" ry="6.8"/><path d="M49.7,24.3c-2.7-2.6-7.1-2.6-9.8,0c-2.7,2.6-2.7,6.9,0,9.6" fill="#890000"/><ellipse cx="44.8" cy="29.1" fill="#FFA412" rx="5.4" ry="5.2"/><path d="M44.8,23.9c-3,0-5.4,2.3-5.4,5.2c0,2.9,2.4,5.2,5.4,5.2" fill="#FF7F15"/><ellipse cx="44.8" cy="29.1" fill="#5E0404" rx="2.8" ry="2.7"/><path d="M44.8,26.4c-1.5,0-2.8,1.2-2.8,2.7c0,1.5,1.2,2.7,2.8,2.7" fill="#350202"/><ellipse cx="46.2" cy="27.7" fill="#FFE799" rx="0.9" ry="0.8"/><ellipse cx="43.7" cy="29.9" fill="#FFE799" rx="0.5" ry="0.5"/><ellipse cx="59.5" cy="14.7" fill="#FF7F15" rx="1.1" ry="1.1"/><ellipse cx="57.7" cy="17.3" fill="#FF7F15" rx="0.5" ry="0.5"/><circle cx="56.4" cy="18.8" fill="#FF7F15" r="0.2"/><path d="M53.6,17.3c0,0-3.3,4.5,0.7,5.1c4,0.6,4.1,4.1,1.7,5.5c-2.4,1.3-3.9-2.1-2.4-2.6c0,0-0.1,2.4,2.2,1.2     c2.3-1.3,0.9-4.1-3.3-3.8c-4.2,0.4-3.8-2.6-2.1-4C52.1,17.2,53.6,17.3,53.6,17.3z" fill="#FF7F15"/><path d="M37.7,36.1c0.2,0,0.3,0,0.5,0c3.4,0,6.2,1.9,6.2,4.9h-9.2c-0.9,0-2.1,0.8-3.1,0.8V30.7     C35,30.7,37.6,33.1,37.7,36.1z" fill="#FFC217"/><path d="M42.2,41L32,30.7v0v0v0v0L21.8,41h7.1c0.9,0,2.1,0.8,3.1,0.8v0c0,0,0,0,0,0s0,0,0,0v0     c1,0,2.2-0.8,3.1-0.8H42.2z" fill="#FF7F15"/></g></g><g><ellipse cx="32" cy="34.1" fill="#A80404" rx="0.7" ry="0.7"/><ellipse cx="32" cy="36.8" fill="#A80404" rx="0.7" ry="0.7"/><ellipse cx="32" cy="39.5" fill="#A80404" rx="0.7" ry="0.7"/></g><path d="M38.2,23.5c0,3.4-2.8,6.1-6.2,6.1s-6.2-2.7-6.2-6.1c0-3.4,2.8-12,6.2-12S38.2,20.2,38.2,23.5z" fill="#FFC217"/><path d="M32,11.6c3.5,0,6.2,8.6,6.2,12c0,3.4-2.8,6.1-6.2,6.1" fill="#FFA412"/><g><g><path d="M29.4,25c-0.4,0-0.7-0.1-0.7-0.5l0,0c0-0.4,0.3-0.5,0.7-0.5h5.2c0.4,0,0.7,0.1,0.7,0.5l0,0     c0,0.4-0.3,0.5-0.7,0.5H29.4z" fill="#5E0404"/></g><g><path d="M31.5,21.9c0-0.4,0.1-0.7,0.5-0.7l0,0c0.4,0,0.5,0.3,0.5,0.7v5.2c0,0.4-0.1,0.7-0.5,0.7l0,0     c-0.4,0-0.5-0.3-0.5-0.7V21.9z" fill="#5E0404"/></g><g><g><ellipse cx="29.5" cy="22" fill="#5E0404" rx="0.6" ry="0.6"/><ellipse cx="34.5" cy="22" fill="#5E0404" rx="0.6" ry="0.6"/></g><g><ellipse cx="29.5" cy="27.1" fill="#5E0404" rx="0.6" ry="0.6"/><ellipse cx="34.5" cy="27.1" fill="#5E0404" rx="0.6" ry="0.6"/></g></g></g><g><ellipse cx="31.9" cy="16" fill="#8C0000" rx="0.4" ry="0.4"/><path d="M32,14.9c-1.2,0-2.2,0.9-2.2,2.1c0,1.2,1,2.1,2.2,2.1c1.2,0,2.2-0.9,2.2-2.1C34.2,15.8,33.2,14.9,32,14.9z     M31.9,18.4c-0.2,0-0.4-0.2-0.4-0.4c0-0.2,0.2-0.4,0.4-0.4s0.4,0.2,0.4,0.4C32.3,18.3,32.1,18.4,31.9,18.4z M32,17    c-0.5,0.2-1,0.3-1,1c0,0.5,0.4,1,1,1c-1.1,0-2-0.9-2-1.9c0-1.1,0.9-1.9,2-1.9c0.5,0,1,0.4,1,1C33,16.7,32.5,16.8,32,17z" fill="#8C0000"/></g><g><polygon fill="#5E0404" points="9.1,35.7 13.3,39.8 11.3,41.7   "/><polygon fill="#5E0404" points="54.9,35.7 50.7,39.8 52.7,41.7   "/></g><g><g><path d="M17.4,10.8c0,0-0.6,3.4,2.3,3.5c3,0,3.8,1.1,3.8,2.2s-1.1,2.2-2.5,1.1c-1.4-1.1-0.2-2.3,1.2-1.4     c0,0-0.9-1-1.8-0.3c-0.9,0.7,0.7,2.9,2.5,2.1c1.9-0.8,0.6-4.4-2.2-5c-2.8-0.6-3.2-2.4-2.6-3.1c0.6-0.7,2.4,0.8,1.2,1.5     c0,0,1.9-0.9,0.3-1.9c-1.8-1.1-2-0.1-2.1,0.4C17.5,10.3,17.4,10.8,17.4,10.8z" fill="#FFC217"/><circle cx="24.4" cy="18.1" fill="#FFC217" r="0.1"/><path d="M25.8,18.8c0.1,0.2,0,0.4-0.2,0.4c-0.2,0.1-0.4,0-0.4-0.2s0-0.4,0.2-0.4C25.5,18.6,25.7,18.6,25.8,18.8z" fill="#FFC217"/><circle cx="26.4" cy="19.3" fill="#FFC217" r="0.1"/><circle cx="27.3" cy="19.7" fill="#FFC217" r="0.1"/><circle cx="22.2" cy="16.8" fill="#FFC217" r="0.2"/><path d="M19.3,10.7c0.1,0.2,0,0.3-0.2,0.4c-0.2,0.1-0.3,0-0.4-0.2c-0.1-0.2,0-0.3,0.2-0.4     C19.1,10.4,19.3,10.5,19.3,10.7z" fill="#FFC217"/><path d="M20.1,11.8c0,0,0.6-0.3,0.6-1.3c0,0,0.7,0.9,0.1,1.2C20.3,11.9,20.1,11.8,20.1,11.8z" fill="#FFC217"/><path d="M20.7,12.2l0.7-0.4c0,0-0.1,0.6-0.3,0.5C21,12.3,20.7,12.2,20.7,12.2z" fill="#FFC217"/><path d="M24.9,9.9c0,0.1,0,0.1-0.1,0.2l-2,0.6c-0.1,0-0.1,0-0.2-0.1l0,0c0-0.1,0-0.1,0.1-0.2l2-0.6     C24.8,9.8,24.9,9.9,24.9,9.9L24.9,9.9z" fill="#FFC217"/><path d="M25.3,11c0,0.1,0,0.1-0.1,0.1l-2,0.6c-0.1,0-0.1,0-0.2-0.1l0,0c0-0.1,0-0.1,0.1-0.2l2-0.6     C25.2,10.9,25.3,10.9,25.3,11L25.3,11z" fill="#FFC217"/><path d="M25.8,12c0,0.1,0,0.1-0.1,0.2l-2.1,0.6c-0.1,0-0.1,0-0.2-0.1l0,0c0-0.1,0-0.1,0.1-0.2l2-0.6     C25.7,11.9,25.8,12,25.8,12L25.8,12z" fill="#FFC217"/><path d="M26.2,13.1c0,0.1,0,0.1-0.1,0.2l-2,0.6c-0.1,0-0.1,0-0.2-0.1l0,0c0-0.1,0-0.1,0.1-0.2l2-0.6     C26.1,13,26.2,13,26.2,13.1L26.2,13.1z" fill="#FFC217"/></g><g><path d="M46.6,10.8c0,0,0.6,3.4-2.3,3.5c-3,0-3.8,1.1-3.8,2.2c0,1.1,1.1,2.2,2.5,1.1c1.4-1.1,0.2-2.3-1.3-1.4     c0,0,0.9-1,1.8-0.3c0.9,0.7-0.7,2.9-2.5,2.1c-1.9-0.8-0.6-4.4,2.2-5c2.8-0.6,3.2-2.4,2.6-3.1c-0.6-0.7-2.4,0.8-1.2,1.5     c0,0-1.9-0.9-0.3-1.9c1.8-1.1,2-0.1,2.1,0.4C46.5,10.3,46.6,10.8,46.6,10.8z" fill="#FFC217"/><circle cx="39.6" cy="18.1" fill="#FFC217" r="0.1"/><ellipse cx="38.6" cy="18.9" fill="#FFC217" rx="0.3" ry="0.3" transform="matrix(-0.9558 -0.2939 0.2939 -0.9558 69.8529 48.32)"/><circle cx="37.6" cy="19.3" fill="#FFC217" r="0.1"/><path d="M36.6,19.6c0,0,0,0.1,0.1,0.1c0,0,0.1,0,0.1-0.1c0,0,0-0.1-0.1-0.1C36.7,19.6,36.7,19.6,36.6,19.6z" fill="#FFC217"/><circle cx="41.8" cy="16.8" fill="#FFC217" r="0.2"/><path d="M44.7,10.7c-0.1,0.2,0,0.3,0.2,0.4c0.2,0.1,0.3,0,0.4-0.2c0.1-0.2,0-0.3-0.2-0.4     C44.9,10.4,44.7,10.5,44.7,10.7z" fill="#FFC217"/><path d="M43.9,11.8c0,0-0.6-0.3-0.6-1.3c0,0-0.7,0.9-0.1,1.2C43.7,11.9,43.9,11.8,43.9,11.8z" fill="#FFC217"/><path d="M43.3,12.2l-0.7-0.4c0,0,0.1,0.6,0.3,0.5C43,12.3,43.3,12.2,43.3,12.2z" fill="#FFC217"/><path d="M39.1,9.9c0,0.1,0,0.1,0.1,0.2l2,0.6c0.1,0,0.1,0,0.2-0.1l0,0c0-0.1,0-0.1-0.1-0.2l-2-0.6     C39.2,9.8,39.1,9.9,39.1,9.9L39.1,9.9z" fill="#FFC217"/><path d="M38.7,11c0,0.1,0,0.1,0.1,0.1l2,0.6c0.1,0,0.1,0,0.2-0.1l0,0c0-0.1,0-0.1-0.1-0.2l-2-0.6     C38.8,10.9,38.7,10.9,38.7,11L38.7,11z" fill="#FFC217"/><path d="M38.2,12c0,0.1,0,0.1,0.1,0.2l2.1,0.6c0.1,0,0.1,0,0.2-0.1l0,0c0-0.1,0-0.1-0.1-0.2l-2-0.6     C38.3,11.9,38.2,12,38.2,12L38.2,12z" fill="#FFC217"/><path d="M37.8,13.1c0,0.1,0,0.1,0.1,0.2l2,0.6c0.1,0,0.1,0,0.2-0.1l0,0c0-0.1,0-0.1-0.1-0.2l-2-0.6     C37.9,13,37.8,13,37.8,13.1L37.8,13.1z" fill="#FFC217"/></g></g></g></svg>