<?xml version="1.0" ?><svg height="24px" version="1.1" viewBox="0 0 24 24" width="24px" xmlns="http://www.w3.org/2000/svg" xmlns:sketch="http://www.bohemiancoding.com/sketch/ns" xmlns:xlink="http://www.w3.org/1999/xlink"><title/><desc/><defs/><g fill="none" fill-rule="evenodd" id="miu" stroke="none" stroke-width="1"><g id="Artboard-1" transform="translate(-251.000000, -263.000000)"><g id="slice" transform="translate(215.000000, 119.000000)"/><path d="M253,284.997538 C253,285.551183 253.44892,286 254.007484,286 L266.992516,286 C267.548934,286 268,285.560542 268,284.997538 L268,265.002462 C268,264.448817 267.55108,264 266.992516,264 L254.007484,264 C253.451066,264 253,264.439458 253,265.002462 L253,284.997538 Z M269,285 L271.001043,285 C271.552752,285 272,284.552511 272,284.001498 L272,272 L273,272 C273.552285,272 274,271.562119 274,270.997071 L274,266.002929 C274,265.449027 273.556283,265 273.000193,265 L269,265 L269,285 Z" fill="#000000" id="editor-folder-2-glyph"/></g></g></svg>