<?xml version="1.0" ?><!DOCTYPE svg  PUBLIC '-//W3C//DTD SVG 1.1//EN'  'http://www.w3.org/Graphics/SVG/1.1/DTD/svg11.dtd'><svg enable-background="new 0 0 128 128" height="128px" id="Layer_1" version="1.1" viewBox="0 0 128 128" width="128px" xml:space="preserve" xmlns="http://www.w3.org/2000/svg" xmlns:xlink="http://www.w3.org/1999/xlink"><g><path d="M15.367,88.323h39.884c-7.395-3.017-14.39-4.495-21.206-4.495C27.014,83.828,20.579,85.973,15.367,88.323z"/><path d="M72.753,88.323h39.883c-5.212-2.351-11.648-4.495-18.681-4.495C87.143,83.828,80.149,85.307,72.753,88.323z"/><path d="M127.913,92.104c-1.589-8.975-3.202-16.197-4.762-23.183c-1.547-6.926-3.147-14.087-4.719-22.953   c-0.478-2.674-2.622-4.817-5.076-5.248c0.131,0.735,9.577,49.099,9.592,49.165c0.009,0.04,0.013,0.08,0.02,0.121   c0.018,0.105,0.052,0.206,0.052,0.317c0,1.104-0.895,2-2,2c-0.007-0.001-0.015,0-0.02,0H7.011c-0.002,0-0.005,0.001-0.008,0.001   c-0.006,0-0.012-0.003-0.018-0.003c-0.183-0.001-0.356-0.034-0.524-0.082c-0.042-0.012-0.083-0.023-0.124-0.038   C6.164,92.14,6,92.06,5.853,91.956c-0.007-0.006-0.017-0.007-0.024-0.013c-0.021-0.015-0.034-0.036-0.054-0.052   c-0.108-0.085-0.207-0.181-0.295-0.286c-0.029-0.034-0.058-0.066-0.084-0.102c-0.096-0.131-0.18-0.271-0.243-0.424   c-0.008-0.021-0.012-0.043-0.02-0.064c-0.049-0.133-0.083-0.272-0.103-0.417c-0.007-0.048-0.011-0.095-0.015-0.143   c-0.003-0.045-0.013-0.088-0.013-0.133c0-0.105,0.015-0.207,0.031-0.309c0.002-0.018-0.001-0.034,0.002-0.052   c0.002-0.013,0.004-0.024,0.007-0.036c0-0.004,0.001-0.008,0.002-0.011c1.685-9.158,9.653-48.494,9.781-49.214   c-2.53,0.353-4.771,2.526-5.26,5.27c-1.573,8.875-3.174,16.046-4.723,22.981c-1.558,6.977-3.17,14.19-4.757,23.147   c-0.272,1.522,0.106,2.993,1.067,4.141c1.012,1.21,2.574,1.903,4.287,1.903h117.12c1.714,0,3.276-0.694,4.288-1.904   C127.808,95.092,128.186,93.621,127.913,92.104z"/><path d="M118.272,86.603c-1.36-7.201-9.4-48.251-9.604-49.431c-3.374-2.646-12.304-7.315-22.336-7.315   c-9.418,0-16.942,4.833-20.332,8.068v49.043c9.832-4.8,19.005-7.14,27.954-7.14C103.709,79.828,112.21,83.483,118.272,86.603z"/><path d="M9.734,86.602c6.06-3.119,14.559-6.773,24.311-6.773c8.954,0,18.127,2.339,27.956,7.138c0,0.001,0,0.001,0.001,0.001   V37.928c0,0,0,0-0.001-0.001c-3.391-3.236-10.916-8.069-20.333-8.069c-9.881,0-18.694,4.532-22.181,7.196v0.051   c0,0.113-0.01,0.227-0.029,0.338C19.271,38.53,11.135,79.234,9.734,86.602z"/></g></svg>